<?xml version="1.0" encoding="UTF-8"?>
<svg width="90px" height="87px" viewBox="0 0 90 87" version="1.1" xmlns="http://www.w3.org/2000/svg" xmlns:xlink="http://www.w3.org/1999/xlink">
    <!-- Generator: Sketch 46.1 (44463) - http://www.bohemiancoding.com/sketch -->
    <title>Why Icon 01</title>
    <desc>Created with Sketch.</desc>
    <defs></defs>
    <g id="Home" stroke="none" stroke-width="1" fill="none" fill-rule="evenodd">
        <g id="Main" transform="translate(-315.000000, -1598.000000)" fill="#25BBD7">
            <g id="FRONT" transform="translate(230.000000, 1551.000000)">
                <g id="Group-36">
                    <g transform="translate(38.000000, 47.000000)">
                        <g id="Why-Icon-01" transform="translate(47.000000, 0.000000)">
                            <path d="M48.9826476,45.7933097 C45.1892601,49.5857329 40.1458365,51.6744035 34.7814729,51.6744035 C29.4171092,51.6744035 24.3736856,49.5857329 20.5808602,45.7933097 C19.8271289,45.03977 19.1470283,44.2407144 18.5383102,43.4056957 L24.4040372,37.3273667 C25.0425449,37.6628352 25.7687349,37.8538893 26.5387662,37.8538893 C28.1316629,37.8538893 29.5373915,37.0407856 30.3630673,35.807363 L40.7039686,39.0513487 C40.7034066,39.0816926 40.7017204,39.1109127 40.7017204,39.1412565 C40.7017204,41.6766564 42.7645048,43.7400404 45.3011113,43.7400404 C47.8371558,43.7400404 49.9010644,41.6766564 49.9010644,39.1412565 C49.9010644,38.3596206 49.7043411,37.6240625 49.3592322,36.9784121 L54.8652366,31.5957447 C54.8652366,36.9587448 52.7760351,42.0008864 48.9826476,45.7933097 M28.5571473,33.2556674 C28.5571473,34.3682764 27.6522201,35.2735355 26.5387662,35.2735355 C25.4258743,35.2735355 24.5209471,34.3682764 24.5209471,33.2556674 C24.5209471,32.1430584 25.4258743,31.2377993 26.5387662,31.2377993 C27.6522201,31.2383612 28.5571473,32.1430584 28.5571473,33.2556674 M47.3194925,39.1412565 C47.3194925,40.2544275 46.4140032,41.1591247 45.3011113,41.1591247 C44.1882195,41.1591247 43.2827302,40.2544275 43.2827302,39.1412565 C43.2827302,38.0292095 44.1882195,37.1233884 45.3011113,37.1233884 C46.4140032,37.1233884 47.3194925,38.0292095 47.3194925,39.1412565 M20.5802981,17.3981797 C24.3736856,13.6057564 29.4165472,11.5170859 34.7814729,11.5170859 C40.1458365,11.5170859 45.1892601,13.6057564 48.9826476,17.3981797 C51.9762143,20.3909855 53.9074751,24.1631795 54.5892619,28.2562319 L47.5533122,35.1341784 C46.8867012,34.7582514 46.1189183,34.5430347 45.3005493,34.5430347 C43.7082146,34.5430347 42.302486,35.3567002 41.4768102,36.5895609 L31.136471,33.3461371 C31.137033,33.3157932 31.1387192,33.2860113 31.1387192,33.2556674 C31.1387192,30.7208294 29.0753727,28.6574455 26.5387662,28.6574455 C24.0027217,28.6574455 21.9393752,30.7208294 21.9393752,33.2556674 C21.9393752,34.0850668 22.1608294,34.8627693 22.5464071,35.53483 L17.1202162,41.1580008 C13.0036404,33.5478677 14.1558769,23.820406 20.5802981,17.3981797 M50.8082399,15.5736133 C46.5269786,11.2934403 40.8360543,8.93617021 34.7814729,8.93617021 C28.7280156,8.93617021 23.0359671,11.2934403 18.7552679,15.5736133 C9.9184568,24.4076163 9.9184568,38.7827492 18.7552679,47.617876 C23.0359671,51.8974872 28.7274535,54.2553191 34.7814729,54.2553191 C40.8354922,54.2553191 46.5269786,51.8974872 50.8082399,47.617876 C55.0889391,43.3382649 57.4468085,37.6482252 57.4468085,31.5951828 C57.4468085,25.5432642 55.0889391,19.8532245 50.8082399,15.5736133" id="Fill-1"></path>
                            <path d="M22.9787234,19.0608391 L24.6767114,21.0638298 C28.6897789,17.486648 34.3163012,16.3840207 39.361236,18.1859032 L40.212766,15.6795644 C34.2943226,13.5656175 27.6905978,14.8606845 22.9787234,19.0608391" id="Fill-3"></path>
                            <path d="M43.5435311,17.2340426 L42.1276596,19.5651916 C42.8483376,20.0049189 43.5393824,20.5094168 44.1824216,21.0638298 L45.9574468,18.9947345 C45.2023944,18.3434627 44.3904463,17.7510193 43.5435311,17.2340426" id="Fill-5"></path>
                            <path d="M37.7609253,46.1004373 C34.8312473,46.7425679 31.8204885,46.4725075 29.0535388,45.3191489 L28.0851064,47.8328338 C30.1835656,48.7072871 32.3999603,49.1489362 34.632798,49.1489362 C35.8558124,49.1489362 37.0833629,49.0162646 38.2978723,48.749742 L37.7609253,46.1004373 Z" id="Fill-7"></path>
                            <g id="Group-11">
                                <path d="M77.4905062,83.1744264 L58.5612563,64.392985 L66.9565688,56.0336055 L85.8863812,74.8150468 L77.4905062,83.1744264 Z M54.2676938,55.9579981 C55.1131313,55.2764113 55.9315688,54.5449795 56.7173813,53.7620228 C57.4773188,53.0059487 58.1894438,52.2196316 58.8543188,51.408112 L63.2502562,56.0862507 L58.6715063,60.6450976 L54.2676938,55.9579981 Z M14.3009438,51.9435245 C3.11056875,40.8017922 3.11056875,22.6728148 14.3009438,11.5305224 C19.8961313,5.95965628 27.2463188,3.17394317 34.5959438,3.17394317 C41.9461313,3.17394317 49.2957563,5.95965628 54.8903813,11.5305224 C66.0813188,22.6722548 66.0813188,40.8017922 54.8903813,51.9435245 C43.7005688,63.0858169 25.4913188,63.0858169 14.3009438,51.9435245 L14.3009438,51.9435245 Z M4.60344375,57.843703 C3.48913125,57.843703 2.58350625,56.9414545 2.58350625,55.8331058 C2.58350625,54.7241971 3.48913125,53.8219487 4.60344375,53.8219487 C5.71663125,53.8219487 6.62338125,54.7241971 6.62338125,55.8331058 C6.62338125,56.9420146 5.71663125,57.843703 4.60344375,57.843703 L4.60344375,57.843703 Z M70.2730687,12.6467119 C71.3862562,12.6467119 72.2930062,13.5495204 72.2930062,14.657869 C72.2930062,15.7673378 71.3862562,16.6690262 70.2730687,16.6690262 C69.1587562,16.6690262 68.2531312,15.7673378 68.2531312,14.657869 C68.2531312,13.5495204 69.1587562,12.6467119 70.2730687,12.6467119 L70.2730687,12.6467119 Z M66.9531937,52.3994092 L65.0778187,54.2666323 L60.4242562,49.3146268 C65.9316937,41.2991209 67.2580687,31.2718979 64.4005688,22.2880571 L68.0922563,18.6936247 C68.7413812,19.0425389 69.4844437,19.2413584 70.2730687,19.2413584 C72.8110687,19.2413584 74.8765687,17.1853968 74.8765687,14.657869 C74.8765687,13.9096357 74.6937562,13.2028464 74.3731312,12.5783852 L82.2981937,4.86250872 L82.2981937,8.85065971 L84.8817562,8.85065971 L84.8817562,0.519842965 L76.5151312,0.519842965 L76.5151312,3.09217515 L80.4216938,3.09217515 L72.6012562,10.7061216 C71.9172562,10.3056824 71.1218812,10.0749397 70.2730687,10.0749397 C67.7345062,10.0749397 65.6695687,12.1303412 65.6695687,14.657869 C65.6695687,15.4660283 65.8821937,16.2265828 66.2523188,16.8868876 L63.4235062,19.6417977 C61.9002562,16.0300036 59.6665688,12.647832 56.7173812,9.7114641 C44.5195687,-2.43276651 24.6728813,-2.43276651 12.4745063,9.7114641 C1.60869375,20.5300447 0.42238125,37.3921779 8.91500625,49.530808 L6.73981875,51.7760681 C6.10081875,51.4405952 5.37406875,51.2501765 4.60288125,51.2501765 C2.06488125,51.2496165 -5.625e-05,53.3061381 -5.625e-05,55.8331058 C-5.625e-05,58.3600736 2.06488125,60.4160351 4.60344375,60.4160351 C7.14200625,60.4160351 9.20638125,58.3600736 9.20638125,55.8331058 C9.20638125,55.0070248 8.98475625,54.2319089 8.59831875,53.5615231 L10.4984438,51.6002108 C11.1177563,52.3439638 11.7753188,53.0658745 12.4745063,53.7620228 C18.5736938,59.8346981 26.5848188,62.8707558 34.5959437,62.8707558 C40.7457563,62.8707558 46.8944438,61.0797002 52.1796937,57.5009493 L56.8439438,62.464716 L54.9044438,64.3963454 L77.4933187,86.8086226 L89.5426312,74.8116865 L66.9531937,52.3994092 Z" id="Fill-9"></path>
                            </g>
                            <polygon id="Fill-12" points="66.9208766 60 63.1914894 63.7191032 65.0343322 65.5577101 66.9208766 63.6760816 74.114604 70.8510638 75.9574468 69.013023"></polygon>
                            <polygon id="Fill-14" points="76.5957447 72.7207555 78.4660121 70.8510638 80.4255319 72.8105836 78.5552644 74.6808511"></polygon>
                        </g>
                    </g>
                </g>
            </g>
        </g>
    </g>
</svg>