<?xml version="1.0" encoding="UTF-8"?>
<svg width="60px" height="60px" viewBox="0 0 60 60" version="1.1" xmlns="http://www.w3.org/2000/svg" xmlns:xlink="http://www.w3.org/1999/xlink">
    <!-- Generator: Sketch 47.1 (45422) - http://www.bohemiancoding.com/sketch -->
    <title>Group 2</title>
    <desc>Created with Sketch.</desc>
    <defs></defs>
    <g id="Mobile-Demo" stroke="none" stroke-width="1" fill="none" fill-rule="evenodd">
        <g id="Suspected-02" transform="translate(-158.000000, -125.000000)">
            <g id="Group" transform="translate(158.000000, 125.000000)">
                <g id="Group-2">
                    <circle id="Oval" fill="#FFFFFF" cx="30" cy="30" r="30"></circle>
                    <path d="M37.821875,13.7125 C39.3687577,13.7125 40.806048,13.5191426 42.1337891,13.1324219 C43.4615301,12.7457012 44.6087842,12.3203148 45.5755859,11.85625 C46.5423876,11.3921852 47.2964817,10.9667988 47.8378906,10.5800781 L48.65,10 L48.65,31.0375 L47.8765625,31.6175781 C47.3609349,32.0042988 46.6390671,32.4296852 45.7109375,32.89375 C44.7828079,33.3578148 43.6742252,33.7832012 42.3851562,34.1699219 C41.0960873,34.5566426 39.6781327,34.75 38.13125,34.75 C36.5843673,34.75 35.2308652,34.5566426 34.0707031,34.1699219 C32.9105411,33.7832012 31.7503964,33.3578148 30.5902344,32.89375 C29.4300723,32.4296852 28.173249,32.0042988 26.8197266,31.6175781 C25.4662042,31.2308574 23.8097754,31.0375 21.8503906,31.0375 C20.71601,31.0375 19.6976608,31.1986312 18.7953125,31.5208984 C17.8929642,31.8431657 17.1195345,32.2234353 16.475,32.6617187 L16.475,48.4398437 C16.475,48.7750017 16.3525403,49.0650378 16.1076172,49.3099609 C15.8626941,49.554884 15.5726579,49.6773437 15.2375,49.6773437 C14.9023421,49.6773437 14.6123059,49.554884 14.3673828,49.3099609 C14.1224597,49.0650378 14,48.7750017 14,48.4398437 L14,13.8285156 L16.1849609,11.9142578 C17.6416088,10.6380796 19.6331905,10 22.1597656,10 C24.1191504,10 25.7433529,10.1933574 27.0324219,10.5800781 C28.3214908,10.9667988 29.5074165,11.3921852 30.5902344,11.85625 C31.6730523,12.3203148 32.7622992,12.7457012 33.8580078,13.1324219 C34.9537164,13.5191426 36.2749923,13.7125 37.821875,13.7125 Z M46.175,29.8 L46.175,14.2925781 C45.0921821,14.7824243 43.841804,15.2207012 42.4238281,15.6074219 C41.0058523,15.9941426 39.4718832,16.1875 37.821875,16.1875 C36.120304,16.1875 34.6636779,15.9876973 33.4519531,15.5880859 C32.2402283,15.1884746 31.0929742,14.7566429 30.0101562,14.2925781 C28.9273383,13.8285133 27.7994199,13.4095722 26.6263672,13.0357422 C25.4533144,12.6619122 23.9644621,12.475 22.1597656,12.475 C20.7933525,12.475 19.6203174,12.7650362 18.640625,13.3451172 C17.6609326,13.9251982 16.9390648,14.4214823 16.475,14.8339844 L16.475,29.8 C17.1968786,29.4648421 18.0089799,29.1748059 18.9113281,28.9298828 C19.8136764,28.6849597 20.7933541,28.5625 21.8503906,28.5625 C24.1449333,28.5625 26.0785078,28.8009742 27.6511719,29.2779297 C29.223836,29.7548852 30.6546811,30.2511693 31.94375,30.7667969 C33.0007865,31.2050803 33.9933547,31.5660142 34.9214844,31.8496094 C35.849614,32.1332045 36.9195252,32.275 38.13125,32.275 C39.9617279,32.275 41.5859304,31.9720733 43.0039062,31.3662109 C44.4218821,30.7603485 45.4789028,30.2382834 46.175,29.8 Z" id="flag---simple-line-icons" fill="#2B4861"></path>
                </g>
            </g>
        </g>
    </g>
</svg>